HIERARCHY
ROOT Hips
{
    OFFSET 0.000000 0.000000 0.000000
    CHANNELS 6 Xposition Yposition Zposition Zrotation Xrotation Yrotation
    JOINT Spine
    {
        OFFSET -0.000000 7.236184 0.000000
        CHANNELS 3 Zrotation Xrotation Yrotation
        JOINT Spine1
        {
            OFFSET -0.000000 20.420147 0.000000
            CHANNELS 3 Zrotation Xrotation Yrotation
            JOINT Neck
            {
                OFFSET -0.000000 20.336288 1.848754
                CHANNELS 3 Zrotation Xrotation Yrotation
                JOINT Head
                {
                    OFFSET -0.000000 12.354461 -1.764923
                    CHANNELS 3 Zrotation Xrotation Yrotation
                    End Site
                    {
                        OFFSET -0.000000 22.061537 0.000000
                    }
                }
            }
            JOINT LeftShoulder
            {
                OFFSET 3.573296 18.396038 -0.314103
                CHANNELS 3 Zrotation Xrotation Yrotation
                JOINT LeftArm
                {
                    OFFSET 10.880760 0.000000 0.000000
                    CHANNELS 3 Zrotation Xrotation Yrotation
                    JOINT LeftForeArm
                    {
                        OFFSET 27.185530 0.000000 0.000000
                        CHANNELS 3 Zrotation Xrotation Yrotation
                        JOINT LeftHand
                        {
                            OFFSET 27.825975 0.000000 0.000000
                            CHANNELS 3 Zrotation Xrotation Yrotation
                            End Site
                            {
                                OFFSET 13.236923 0.000000 0.000000
                            }
                        }
                    }
                }
            }
            JOINT RightShoulder
            {
                OFFSET -3.474926 18.396038 -0.314103
                CHANNELS 3 Zrotation Xrotation Yrotation
                JOINT RightArm
                {
                    OFFSET -10.880760 0.000000 0.000000
                    CHANNELS 3 Zrotation Xrotation Yrotation
                    JOINT RightForeArm
                    {
                        OFFSET -27.185530 0.000000 0.000000
                        CHANNELS 3 Zrotation Xrotation Yrotation
                        JOINT RightHand
                        {
                            OFFSET -27.825975 0.000000 0.000000
                            CHANNELS 3 Zrotation Xrotation Yrotation
                            End Site
                            {
                                OFFSET -13.236923 0.000000 0.000000
                            }
                        }
                    }
                }
            }
        }
    }
    JOINT LeftUpLeg
    {
        OFFSET 8.824615 0.000000 0.000000
        CHANNELS 3 Zrotation Xrotation Yrotation
        JOINT LeftLeg
        {
            OFFSET -0.000000 -35.111282 0.000000
            CHANNELS 3 Zrotation Xrotation Yrotation
            JOINT LeftFoot
            {
                OFFSET -0.000000 -42.324711 0.000000
                CHANNELS 3 Zrotation Xrotation Yrotation
                JOINT LeftToeBase
                {
                    OFFSET -0.000000 -5.735999 13.236923
                    CHANNELS 3 Zrotation Xrotation Yrotation
                    End Site
                    {
                        OFFSET -0.000000 0.000000 3.529846
                    }
                }
            }
        }
    }
    JOINT RightUpLeg
    {
        OFFSET -8.824615 0.000000 0.000000
        CHANNELS 3 Zrotation Xrotation Yrotation
        JOINT RightLeg
        {
            OFFSET -0.000000 -35.111282 0.000000
            CHANNELS 3 Zrotation Xrotation Yrotation
            JOINT RightFoot
            {
                OFFSET -0.000000 -42.324711 0.000000
                CHANNELS 3 Zrotation Xrotation Yrotation
                JOINT RightToeBase
                {
                    OFFSET -0.000000 -5.735999 13.236923
                    CHANNELS 3 Zrotation Xrotation Yrotation
                    End Site
                    {
                        OFFSET -0.000000 0.000000 3.529846
                    }
                }
            }
        }
    }
}
MOTION
Frames:    4
Frame Time:    0.008333
-0.458914    81.721535    110.831520    1.238175    -8.120931    -177.310272    -0.825273    -6.519880    0.025003    2.207280    0.076635    0.071284    2.979699    13.711932    -4.218433    8.350480    3.527565    -3.524598    5.223839    9.416208    1.032140    -34.176006    14.043709    -15.532926    15.939274    -12.280784    -48.490101    26.447378    -5.883561    -3.203779    0.399892    10.828285    -10.368653    37.668972    4.685404    9.574123    -21.234667    -13.720006    50.629253    -25.429087    -4.349725    3.050559    6.892369    -18.585684    -0.396728    1.676372    26.381615    -0.635897    -8.511544    -12.656530    -11.942212    0.565400    -0.276702    -0.627039    -14.244665    -21.661482    -8.040347    9.440143    39.959866    -2.747682    7.477133    -5.735888    -10.929228    0.016125    -6.831779    -0.017607    
-0.759286    81.757484    110.900665    1.159775    -8.058531    -177.415253    -0.831570    -6.501451    -0.057122    2.033718    0.146939    -0.013886    3.077729    13.689913    -4.140131    8.292733    3.457073    -3.447385    4.661409    9.910796    0.939205    -35.117893    14.907989    -16.516243    15.990661    -12.340488    -48.633949    26.604372    -5.895561    -3.180441    1.043326    11.172146    -10.350414    38.863472    5.882964    10.971614    -21.169537    -13.834830    50.612389    -25.688162    -4.479393    2.913225    6.637442    -18.447222    -0.402510    1.620649    26.222483    -0.668544    -8.351180    -12.628747    -11.799459    0.574304    -0.263662    -0.636898    -13.842654    -22.021244    -8.024522    9.996688    40.887234    -3.363904    7.420479    -5.744732    -10.907508    0.020437    -6.969234    -0.022323    
-1.047418    81.781509    110.969688    1.073828    -7.991305    -177.518448    -0.844818    -6.479852    -0.138478    1.856467    0.220015    -0.094888    3.164144    13.679622    -4.065242    8.246117    3.374514    -3.371115    4.123700    10.386341    0.836808    -36.045738    15.812943    -17.519646    16.061972    -12.401376    -48.718369    26.755737    -5.912210    -3.169010    1.661158    11.521284    -10.320509    40.033989    7.148561    12.366281    -21.128616    -13.974662    50.558544    -25.939613    -4.630760    2.776588    6.385000    -18.335386    -0.396663    1.569854    26.116497    -0.695662    -8.210155    -12.613714    -11.683681    0.582274    -0.258523    -0.645731    -13.426835    -22.358215    -7.994924    10.557797    41.772102    -3.982916    7.362761    -5.750039    -10.896377    0.014954    -7.079426    -0.016335    
-1.323975    81.793297    111.038193    0.979831    -7.919298    -177.620346    -0.865075    -6.455008    -0.215765    1.677431    0.295451    -0.171555    3.236946    13.679361    -3.995174    8.211364    3.281474    -3.297193    3.609107    10.842905    0.726374    -36.954220    16.750990    -18.544970    16.147673    -12.463272    -48.743008    26.904102    -5.935605    -3.168311    2.251378    11.874259    -10.278122    41.171814    8.474271    13.752763    -21.106077    -14.138106    50.468826    -26.187609    -4.805288    2.641731    6.133856    -18.251373    -0.383185    1.522222    26.066692    -0.710339    -8.088646    -12.613070    -11.596776    0.589850    -0.260955    -0.654136    -13.000910    -22.669575    -7.950518    11.117587    42.607079    -4.598908    7.298361    -5.751122    -10.904234    -0.000258    -7.161049    0.000290    
